<svg xmlns="http://www.w3.org/2000/svg" viewBox="0 0 300 65"><path fill="#00A0E9" d="M65.7 0H0l26.3 65h65.7L65.7 0z"/><path fill="#00A0E9" d="M95.2 12.7h14.7c18.7 0 27.7 8.5 27.7 19.5 0 17-16.5 19.7-29.2 19.7H95.2V12.7zm13.1 31.7c9.4 0 15.7-2.2 15.7-11.9 0-7.1-4.5-12.2-15-12.2h-.8v24.1h.1zM145.3 12.7h13.1V52h-13.1V12.7zM166.3 12.7h14.6L193.6 36l12.7-23.3h14.6V52h-12.5V26.1L194.2 52h-1.1L179 26.1V52h-12.7V12.7zM230.5 12.7h13.2V52h-13.2V12.7zM251.5 12.7h14.6L278.8 36l12.7-23.3h8.5L285.7 52h-13.6l-20.6-39.3z"/></svg>