<svg width="1600" height="1000" viewBox="0 0 1600 1000" fill="none" xmlns="http://www.w3.org/2000/svg">
  <rect width="1600" height="1000" fill="#F4EFE7"/>
  <rect x="0" y="0" width="1600" height="220" fill="#E7D7C7"/>
  <rect x="80" y="150" width="560" height="760" rx="24" fill="#EFE7DB" stroke="#D7C8B8" stroke-width="6"/>
  <rect x="140" y="250" width="220" height="420" rx="20" fill="#FDFCF9" stroke="#C7B8AA" stroke-width="6"/>
  <rect x="390" y="250" width="180" height="260" rx="18" fill="#FFFFFF" stroke="#C7B8AA" stroke-width="6"/>
  <rect x="400" y="270" width="160" height="36" rx="10" fill="#B78666"/>
  <rect x="425" y="322" width="112" height="112" rx="56" fill="#D9D9D9"/>
  <rect x="390" y="540" width="180" height="130" rx="18" fill="#8F4F28"/>
  <rect x="770" y="150" width="750" height="760" rx="24" fill="#F8F4EE" stroke="#D7C8B8" stroke-width="6"/>
  <rect x="840" y="240" width="360" height="560" rx="20" fill="#DDE6EA" stroke="#A4B2BA" stroke-width="6"/>
  <rect x="880" y="280" width="280" height="480" rx="14" fill="#FFFFFF" opacity="0.72"/>
  <circle cx="144" cy="280" r="8" fill="#8F4F28"/>
  <circle cx="1180" cy="280" r="8" fill="#8F4F28"/>
  <rect x="1250" y="260" width="190" height="540" rx="20" fill="#E7D7C7"/>
  <rect x="1290" y="300" width="110" height="190" rx="16" fill="#F8F4EE"/>
  <rect x="1288" y="520" width="114" height="220" rx="16" fill="#FFFFFF"/>
  <rect x="0" y="910" width="1600" height="90" fill="#D8C8B8"/>
  <text x="100" y="120" fill="#6F3D1E" font-family="Arial, sans-serif" font-size="56" font-weight="700">Showroom bagno</text>
  <text x="100" y="182" fill="#8F4F28" font-family="Arial, sans-serif" font-size="30">Ambiente coordinato con mobile, lavabo, box doccia e finiture calde</text>
</svg>